<?xml version="1.0" encoding="UTF-8" standalone="no"?><svg xmlns:svg="http://www.w3.org/2000/svg" xmlns="http://www.w3.org/2000/svg" xmlns:xlink="http://www.w3.org/1999/xlink" version="1.0" width="128px" height="128px" viewBox="0 0 128 128" xml:space="preserve"><g><path d="M64 0a8 8 0 0 1 8 8c0 4.42-8 25.5-8 25.5S56 12.42 56 8a8 8 0 0 1 8-8z" fill="#03d88c"/><path d="M64 0a8 8 0 0 1 8 8c0 4.42-8 25.5-8 25.5S56 12.42 56 8a8 8 0 0 1 8-8z" fill="#f8fefc" transform="rotate(30 64 64)"/><path d="M64 0a8 8 0 0 1 8 8c0 4.42-8 25.5-8 25.5S56 12.42 56 8a8 8 0 0 1 8-8z" fill="#e8fbf5" transform="rotate(60 64 64)"/><path d="M64 0a8 8 0 0 1 8 8c0 4.42-8 25.5-8 25.5S56 12.42 56 8a8 8 0 0 1 8-8z" fill="#d5f8ec" transform="rotate(90 64 64)"/><path d="M64 0a8 8 0 0 1 8 8c0 4.42-8 25.5-8 25.5S56 12.42 56 8a8 8 0 0 1 8-8z" fill="#bff5e2" transform="rotate(120 64 64)"/><path d="M64 0a8 8 0 0 1 8 8c0 4.42-8 25.5-8 25.5S56 12.42 56 8a8 8 0 0 1 8-8z" fill="#a7f1d7" transform="rotate(150 64 64)"/><path d="M64 0a8 8 0 0 1 8 8c0 4.42-8 25.5-8 25.5S56 12.42 56 8a8 8 0 0 1 8-8z" fill="#8feecc" transform="rotate(180 64 64)"/><path d="M64 0a8 8 0 0 1 8 8c0 4.42-8 25.5-8 25.5S56 12.42 56 8a8 8 0 0 1 8-8z" fill="#75eac0" transform="rotate(210 64 64)"/><path d="M64 0a8 8 0 0 1 8 8c0 4.42-8 25.5-8 25.5S56 12.42 56 8a8 8 0 0 1 8-8z" fill="#5ce6b5" transform="rotate(240 64 64)"/><path d="M64 0a8 8 0 0 1 8 8c0 4.42-8 25.5-8 25.5S56 12.42 56 8a8 8 0 0 1 8-8z" fill="#43e2a9" transform="rotate(270 64 64)"/><path d="M64 0a8 8 0 0 1 8 8c0 4.42-8 25.5-8 25.5S56 12.42 56 8a8 8 0 0 1 8-8z" fill="#2dde9f" transform="rotate(300 64 64)"/><path d="M64 0a8 8 0 0 1 8 8c0 4.42-8 25.5-8 25.5S56 12.42 56 8a8 8 0 0 1 8-8z" fill="#18db95" transform="rotate(330 64 64)"/><animateTransform attributeName="transform" type="rotate" values="0 64 64;30 64 64;60 64 64;90 64 64;120 64 64;150 64 64;180 64 64;210 64 64;240 64 64;270 64 64;300 64 64;330 64 64" calcMode="discrete" dur="1080ms" repeatCount="indefinite"></animateTransform></g></svg>